<svg xmlns="http://www.w3.org/2000/svg" width="160" height="140" viewBox="0 0 160 140"><defs><linearGradient id="paper" x2=".8" y2="1"><stop stop-color="#fff"/><stop offset="1" stop-color="#dce9ee"/></linearGradient><linearGradient id="teal" x2=".4" y2="1"><stop stop-color="#65b9b4"/><stop offset="1" stop-color="#236975"/></linearGradient><linearGradient id="blue" x2="1" y2="1"><stop stop-color="#f8fdff"/><stop offset="1" stop-color="#b6dfff"/></linearGradient><radialGradient id="glass" cx=".3" cy=".2" r=".9"><stop stop-color="#fff"/><stop offset=".55" stop-color="#f1f3fb"/><stop offset="1" stop-color="#b7bfd7"/></radialGradient><linearGradient id="metal"><stop stop-color="#8697ae"/><stop offset=".4" stop-color="#e2e7ec"/><stop offset="1" stop-color="#637790"/></linearGradient><filter id="shadow" x="-.4" y="-.4" width="1.8" height="1.8"><feDropShadow dx="1" dy="7" stdDeviation="5" flood-color="#23434b" flood-opacity=".18"/></filter></defs><g transform="translate(25 13) rotate(15 50 58)" filter="url(#shadow)"><rect x="0" y="4" width="99" height="117" rx="5" fill="#438b88"/><rect x="6" y="0" width="88" height="115" rx="3" fill="url(#paper)"/><path d="M20 9v97" stroke="#dfb7b7"/><g stroke="#bccbd0" stroke-width="1.3"><path d="M27 22h53M27 31h53M27 40h39M27 54h53M27 63h46M27 77h53M27 86h53M27 95h35"/></g><path d="M33 13h36" stroke="#8dabae" stroke-width="2"/><path d="M100 22h7v79h-7z" fill="#f6d699"/><path d="M100 22h3v79h-3z" fill="#c49860"/><path d="m100 101 3.5 12 3.5-12" fill="#ead9b8"/><path d="m102 108 1.5 5 1.5-5" fill="#405165"/><rect x="100" y="16" width="7" height="8" rx="2" fill="#91c5c1"/></g></svg>